<svg xmlns="http://www.w3.org/2000/svg" viewBox="0 0 128 128">
  <defs>
    <linearGradient id="bagGradient" x1="0%" y1="0%" x2="100%" y2="100%">
      <stop offset="0%" style="stop-color:#a855f7;stop-opacity:1" />
      <stop offset="100%" style="stop-color:#ec4899;stop-opacity:1" />
    </linearGradient>
    <linearGradient id="bgGradient" x1="0%" y1="0%" x2="100%" y2="100%">
      <stop offset="0%" style="stop-color:#fef3c7;stop-opacity:1" />
      <stop offset="100%" style="stop-color:#fde68a;stop-opacity:1" />
    </linearGradient>
  </defs>
  
  <!-- Background circle -->
  <circle cx="64" cy="64" r="60" fill="url(#bgGradient)" stroke="#fbbf24" stroke-width="3"/>
  
  <!-- Shopping bag body -->
  <path d="M 40 40 L 40 88 Q 40 96 48 96 L 80 96 Q 88 96 88 88 L 88 40 Z" 
        fill="url(#bagGradient)" 
        stroke="#7c3aed" 
        stroke-width="3"/>
  
  <!-- Bag opening/top -->
  <path d="M 32 40 Q 40 32 48 40 L 48 44 L 80 44 L 80 40 Q 88 32 96 40 L 88 40 Q 88 40 80 40 L 48 40 Q 40 40 32 40" 
        fill="url(#bagGradient)" 
        stroke="#7c3aed" 
        stroke-width="3"/>
  
  <!-- Left handle -->
  <path d="M 48 40 Q 40 24 28 36" 
        fill="none" 
        stroke="#ec4899" 
        stroke-width="4" 
        stroke-linecap="round" 
        stroke-linejoin="round"/>
  
  <!-- Right handle -->
  <path d="M 80 40 Q 88 24 100 36" 
        fill="none" 
        stroke="#ec4899" 
        stroke-width="4" 
        stroke-linecap="round" 
        stroke-linejoin="round"/>
  
  <!-- Small decorative elements (stars) -->
  <circle cx="64" cy="68" r="3" fill="#fff" opacity="0.9"/>
  <circle cx="56" cy="72" r="2" fill="#fff" opacity="0.7"/>
  <circle cx="72" cy="72" r="2" fill="#fff" opacity="0.7"/>
</svg>
